<?xml version="1.0" encoding="utf-8"?>
<!-- Generator: Adobe Illustrator 27.6.1, SVG Export Plug-In . SVG Version: 6.00 Build 0)  -->
<svg version="1.1" id="Layer_1" xmlns="http://www.w3.org/2000/svg" xmlns:xlink="http://www.w3.org/1999/xlink" x="0px" y="0px"
	 viewBox="0 0 2086.7 701.2" width="300" height="101" style="enable-background:new 0 0 2086.7 701.2;" xml:space="preserve">
<style type="text/css">
	.st0{fill:#8A2734;}
	.st1{fill:#CF384A;}
	.st2{fill:#FFFFFF;}
</style>
<g id="Triangle">
	<g id="Group_28257">
		<path id="Path_203987" class="st0" d="M0,52.6l2,588.3l395.2-226.7L339,377.6L62.5,538.1L60.7,5.9L0,52.6z"/>
		<path id="Path_203988" class="st1" d="M215.1,253.4l276.5,160.5L30.4,679.5l84.3,21.7l496.2-285.7L215.1,184.7L215.1,253.4z"/>
		<path id="Path_203989" class="st1" d="M115.4,0l-0.8,455.6l60.8-32.2l-1-319.7l462.1,264L610.8,283L115.4,0z"/>
	</g>
</g>
<g id="E">
	<path id="Path_203990" class="st2" d="M787,369.2v86.9h127.2v34.5H750.6V216.5h161.7v34.5H787v84.2h115.5v34.1H787z"/>
</g>
<g id="m">
	<path id="Path_203991" class="st2" d="M1166,289.7c20.1-0.9,39.6,7,53.4,21.5c14,15.8,21.2,36.5,20.2,57.5v121.8h-34.1V369.9
		c0.7-12.7-3.4-25.2-11.6-35c-8.1-8.7-19.7-13.3-31.5-12.7c-13.5-0.7-26.6,4.9-35.4,15.1c-9.3,12.9-13.9,28.6-12.7,44.5v108.9h-34.1
		V370c0.7-12.7-3.3-25.1-11.2-35c-7.7-8.6-18.8-13.3-30.4-12.7c-13.8-0.5-27,5.2-36.2,15.5c-10,12.4-14.9,28.1-13.9,44v108.9h-34.1
		V294.8h34.1V321c12.3-20.3,34.6-32.3,58.3-31.3c24.1-1.3,46.7,11.7,57.6,33.3C1117.2,301.3,1140.9,288.4,1166,289.7"/>
</g>
<g id="o">
	<path id="Path_203992" class="st2" d="M1452.2,465.9c-40,40.4-105.2,40.8-145.6,0.8c-19.8-19.5-30.8-46.2-30.6-74
		c0-57,46.2-103.2,103.2-103.2s103.2,46.2,103.2,103.2C1482.9,420.2,1472,446.7,1452.2,465.9 M1379,462.4
		c37.7,0.6,68.7-29.4,69.3-67.1c0-0.9,0-1.7,0-2.6c0.8-37.7-29.1-68.9-66.7-69.7c-0.9,0-1.7,0-2.6,0c-18.4-0.4-36.1,6.9-48.9,20
		c-26.6,27.8-26.6,71.6,0,99.5C1343,455.6,1360.7,462.8,1379,462.4"/>
</g>
<g id="v">
	<path id="Path_203993" class="st2" d="M1590.4,454.1l61.5-159.4h36.8l-78.3,195.8h-40l-78.3-195.8h36.8L1590.4,454.1L1590.4,454.1z
		"/>
</g>
<g id="i">
	<path id="Path_203994" class="st2" d="M1734.9,259.1c-6.2,0.1-12.1-2.3-16.4-6.6c-4.3-4.2-6.7-10-6.7-16.1
		c-0.1-6.1,2.3-11.9,6.7-16.2c4.3-4.5,10.2-7,16.4-6.8c6.1-0.1,11.9,2.4,16.1,6.8c4.3,4.3,6.7,10.2,6.7,16.2
		C1757.6,249,1747.5,259.1,1734.9,259.1L1734.9,259.1 M1751.8,490.6h-34.1V294.8h34.1V490.6z"/>
</g>
<g id="d">
	<path id="Path_203995" class="st2" d="M1965.9,328.5v-112h34.1v274.1h-34.1v-33.7c-15.8,25.4-44.1,40.2-74,38.8
		c-26.5,0.5-52-10.3-70.1-29.8c-19.1-19.5-29.5-45.9-29-73.2c-0.5-27.2,9.9-53.4,29-72.8c18-19.5,43.5-30.5,70.1-30.1
		C1921.8,288.2,1950.1,303.1,1965.9,328.5 M1896.2,462.7c18.6,0.5,36.6-6.8,49.7-20c13.1-13.3,20.3-31.4,20-50.1
		c0.5-18.6-6.8-36.6-20-49.7c-27-27.3-71-27.6-98.3-0.6c-13.5,13.3-20.9,31.5-20.7,50.4c-0.3,18.7,6.8,36.8,20,50.1
		C1859.9,456,1877.7,463.2,1896.2,462.7"/>
</g>
<g id="TM">
	<path class="st2" d="M2025.6,223.1h-10v-6.8h27.7v6.8h-10v28.2h-7.7V223.1z"/>
	<path class="st2" d="M2047.2,216.3h11.7l8.1,22.8h0.1l8.1-22.8h11.6v35h-7.7v-26.8h-0.1l-9.2,26.8h-5.9l-8.8-26.8h-0.1v26.8h-7.7
		V216.3z"/>
</g>
</svg>
